<mxfile host="app.diagrams.net" modified="2022-05-17T15:13:55.637Z" agent="5.0 (Windows)" etag="WdVe890Qk8gyFgfe6SjS" version="18.0.6" type="github">
  <diagram id="mLPpQYJzLz1xqzUndZVS" name="Page-1">
    <mxGraphModel dx="1422" dy="752" grid="1" gridSize="10" guides="1" tooltips="1" connect="1" arrows="1" fold="1" page="1" pageScale="1" pageWidth="827" pageHeight="1169" math="0" shadow="0">
      <root>
        <mxCell id="0" />
        <mxCell id="1" parent="0" />
        <mxCell id="8U_8XwLauRsZ4ZYQqi3w-3" value="Programmable Logic Device" style="shape=umlFrame;whiteSpace=wrap;html=1;width=230;height=30;boundedLbl=1;verticalAlign=middle;align=left;spacingLeft=5;fillColor=default;swimlaneFillColor=#ffffff;fontSize=17;" parent="1" vertex="1">
          <mxGeometry x="50" y="220" width="830" height="850" as="geometry" />
        </mxCell>
        <mxCell id="9wRkoVYpAe7Pgj8xl5cS-29" value="RISC-V based Microcontroller SoC" style="shape=umlFrame;whiteSpace=wrap;html=1;width=280;height=30;boundedLbl=1;verticalAlign=middle;align=left;spacingLeft=5;fillColor=#FFFFFF;swimlaneFillColor=#E0F0FF;direction=west;fontSize=17;" parent="1" vertex="1">
          <mxGeometry x="80" y="631" width="760" height="409" as="geometry" />
        </mxCell>
        <mxCell id="8U_8XwLauRsZ4ZYQqi3w-2" value="&lt;div style=&quot;font-size: 17px;&quot;&gt;Gigabit Ethernet MAC&lt;/div&gt;" style="shape=umlFrame;whiteSpace=wrap;html=1;width=190;height=30;boundedLbl=1;verticalAlign=middle;align=left;spacingLeft=5;fillColor=#FFFFFF;swimlaneFillColor=#ECFFD9;fontSize=17;" parent="1" vertex="1">
          <mxGeometry x="80" y="280" width="760" height="330" as="geometry" />
        </mxCell>
        <mxCell id="9wRkoVYpAe7Pgj8xl5cS-7" value="" style="group;fillColor=none;fontSize=17;" parent="1" vertex="1" connectable="0">
          <mxGeometry x="200" y="60" width="400" height="140" as="geometry" />
        </mxCell>
        <mxCell id="9wRkoVYpAe7Pgj8xl5cS-1" value="Ethernet PHY Device" style="shape=umlFrame;whiteSpace=wrap;html=1;width=190;height=30;boundedLbl=1;verticalAlign=middle;align=left;spacingLeft=5;fillColor=#FFFFFF;swimlaneFillColor=#F5F4F7;fontSize=17;" parent="9wRkoVYpAe7Pgj8xl5cS-7" vertex="1">
          <mxGeometry width="360" height="140" as="geometry" />
        </mxCell>
        <mxCell id="9wRkoVYpAe7Pgj8xl5cS-3" value="&lt;span style=&quot;font-size: 17px;&quot;&gt;RJ-45&lt;/span&gt;" style="rounded=0;whiteSpace=wrap;html=1;labelBackgroundColor=none;fillColor=#F7F2FF;fontSize=17;" parent="9wRkoVYpAe7Pgj8xl5cS-7" vertex="1">
          <mxGeometry x="320" y="43.75" width="80" height="70" as="geometry" />
        </mxCell>
        <mxCell id="9wRkoVYpAe7Pgj8xl5cS-4" value="Gigabit Ethernet PHY" style="rounded=0;whiteSpace=wrap;html=1;labelBackgroundColor=none;fillColor=#F7F2FF;fontSize=17;" parent="9wRkoVYpAe7Pgj8xl5cS-7" vertex="1">
          <mxGeometry x="50" y="43.75" width="200" height="70" as="geometry" />
        </mxCell>
        <mxCell id="9wRkoVYpAe7Pgj8xl5cS-6" value="" style="shape=flexArrow;endArrow=classic;startArrow=classic;html=1;rounded=0;fontColor=none;entryX=0;entryY=0.5;entryDx=0;entryDy=0;exitX=1;exitY=0.5;exitDx=0;exitDy=0;fillColor=default;fontSize=17;" parent="9wRkoVYpAe7Pgj8xl5cS-7" source="9wRkoVYpAe7Pgj8xl5cS-4" target="9wRkoVYpAe7Pgj8xl5cS-3" edge="1">
          <mxGeometry width="100" height="100" relative="1" as="geometry">
            <mxPoint x="200" y="131.25" as="sourcePoint" />
            <mxPoint x="300" y="43.75" as="targetPoint" />
          </mxGeometry>
        </mxCell>
        <mxCell id="9wRkoVYpAe7Pgj8xl5cS-8" value="RGMII" style="shape=flexArrow;endArrow=classic;startArrow=classic;html=1;rounded=0;fontColor=none;entryX=0.5;entryY=1;entryDx=0;entryDy=0;width=18;fillColor=#FFFFFF;labelBackgroundColor=none;horizontal=0;startSize=6;fontSize=17;exitX=0.471;exitY=0;exitDx=0;exitDy=0;exitPerimeter=0;" parent="1" source="ea6-Gz3SK-r3EGPKtPST-5" target="9wRkoVYpAe7Pgj8xl5cS-4" edge="1">
          <mxGeometry width="100" height="100" relative="1" as="geometry">
            <mxPoint x="350" y="280" as="sourcePoint" />
            <mxPoint x="690" y="390" as="targetPoint" />
          </mxGeometry>
        </mxCell>
        <mxCell id="9wRkoVYpAe7Pgj8xl5cS-14" value="RX FIFO (ETH Frame)" style="swimlane;fontStyle=0;childLayout=stackLayout;horizontal=1;startSize=30;horizontalStack=0;resizeParent=1;resizeParentMax=0;resizeLast=0;collapsible=1;marginBottom=0;labelBackgroundColor=none;fontColor=none;fillColor=#97D077;fontSize=17;" parent="1" vertex="1">
          <mxGeometry x="110" y="495" width="180" height="90" as="geometry" />
        </mxCell>
        <mxCell id="9wRkoVYpAe7Pgj8xl5cS-15" value="  " style="text;strokeColor=default;fillColor=#B9E0A5;align=left;verticalAlign=middle;spacingLeft=4;spacingRight=4;overflow=hidden;points=[[0,0.5],[1,0.5]];portConstraint=eastwest;rotatable=0;labelBackgroundColor=none;fontColor=none;labelBorderColor=none;fontSize=17;" parent="9wRkoVYpAe7Pgj8xl5cS-14" vertex="1">
          <mxGeometry y="30" width="180" height="20" as="geometry" />
        </mxCell>
        <mxCell id="9wRkoVYpAe7Pgj8xl5cS-16" value=" " style="text;strokeColor=default;fillColor=#B9E0A5;align=left;verticalAlign=middle;spacingLeft=4;spacingRight=4;overflow=hidden;points=[[0,0.5],[1,0.5]];portConstraint=eastwest;rotatable=0;labelBackgroundColor=none;fontColor=none;fontSize=17;" parent="9wRkoVYpAe7Pgj8xl5cS-14" vertex="1">
          <mxGeometry y="50" width="180" height="20" as="geometry" />
        </mxCell>
        <mxCell id="9wRkoVYpAe7Pgj8xl5cS-17" value=" " style="text;strokeColor=default;fillColor=#B9E0A5;align=left;verticalAlign=middle;spacingLeft=4;spacingRight=4;overflow=hidden;points=[[0,0.5],[1,0.5]];portConstraint=eastwest;rotatable=0;labelBackgroundColor=none;fontColor=none;fontSize=17;" parent="9wRkoVYpAe7Pgj8xl5cS-14" vertex="1">
          <mxGeometry y="70" width="180" height="20" as="geometry" />
        </mxCell>
        <mxCell id="9wRkoVYpAe7Pgj8xl5cS-18" value="RX PTP &#xa;TS FIFO" style="swimlane;fontStyle=0;childLayout=stackLayout;horizontal=1;startSize=40;horizontalStack=0;resizeParent=1;resizeParentMax=0;resizeLast=0;collapsible=1;marginBottom=0;labelBackgroundColor=none;fontColor=none;fillColor=#FF9999;fontSize=17;" parent="1" vertex="1">
          <mxGeometry x="515" y="490" width="100" height="100" as="geometry" />
        </mxCell>
        <mxCell id="9wRkoVYpAe7Pgj8xl5cS-19" value="  " style="text;strokeColor=default;fillColor=#FFCCCC;align=left;verticalAlign=middle;spacingLeft=4;spacingRight=4;overflow=hidden;points=[[0,0.5],[1,0.5]];portConstraint=eastwest;rotatable=0;labelBackgroundColor=none;fontColor=none;labelBorderColor=none;fontSize=17;" parent="9wRkoVYpAe7Pgj8xl5cS-18" vertex="1">
          <mxGeometry y="40" width="100" height="20" as="geometry" />
        </mxCell>
        <mxCell id="9wRkoVYpAe7Pgj8xl5cS-20" value=" " style="text;strokeColor=default;fillColor=#FFCCCC;align=left;verticalAlign=middle;spacingLeft=4;spacingRight=4;overflow=hidden;points=[[0,0.5],[1,0.5]];portConstraint=eastwest;rotatable=0;labelBackgroundColor=none;fontColor=none;fontSize=17;" parent="9wRkoVYpAe7Pgj8xl5cS-18" vertex="1">
          <mxGeometry y="60" width="100" height="20" as="geometry" />
        </mxCell>
        <mxCell id="9wRkoVYpAe7Pgj8xl5cS-21" value=" " style="text;strokeColor=default;fillColor=#FFCCCC;align=left;verticalAlign=middle;spacingLeft=4;spacingRight=4;overflow=hidden;points=[[0,0.5],[1,0.5]];portConstraint=eastwest;rotatable=0;labelBackgroundColor=none;fontColor=none;fontSize=17;" parent="9wRkoVYpAe7Pgj8xl5cS-18" vertex="1">
          <mxGeometry y="80" width="100" height="20" as="geometry" />
        </mxCell>
        <mxCell id="9wRkoVYpAe7Pgj8xl5cS-30" value="DMA" style="rounded=0;whiteSpace=wrap;html=1;glass=0;labelBackgroundColor=none;labelBorderColor=none;fontColor=none;strokeColor=default;fillColor=#FFEDED;fontSize=17;" parent="1" vertex="1">
          <mxGeometry x="110" y="676" width="620" height="44" as="geometry" />
        </mxCell>
        <mxCell id="9wRkoVYpAe7Pgj8xl5cS-32" value="Stream" style="shape=flexArrow;endArrow=classic;html=1;rounded=0;labelBackgroundColor=none;fontColor=none;fillColor=#FFFFFF;orthogonal=1;horizontal=0;width=20;endSize=7.33;fontSize=17;" parent="1" source="9wRkoVYpAe7Pgj8xl5cS-17" target="9wRkoVYpAe7Pgj8xl5cS-30" edge="1">
          <mxGeometry width="50" height="50" relative="1" as="geometry">
            <mxPoint x="370" y="680" as="sourcePoint" />
            <mxPoint x="175" y="640" as="targetPoint" />
          </mxGeometry>
        </mxCell>
        <mxCell id="9wRkoVYpAe7Pgj8xl5cS-37" value="On-Chip Interconnect" style="rounded=0;whiteSpace=wrap;html=1;glass=0;labelBackgroundColor=none;labelBorderColor=none;fontColor=none;strokeColor=default;fillColor=#FFFFFF;fontSize=17;" parent="1" vertex="1">
          <mxGeometry x="110" y="750" width="700" height="50" as="geometry" />
        </mxCell>
        <mxCell id="9wRkoVYpAe7Pgj8xl5cS-39" value="" style="shape=flexArrow;endArrow=classic;html=1;rounded=0;labelBackgroundColor=none;fontColor=none;fillColor=#FFFFFF;orthogonal=1;fontSize=17;" parent="1" edge="1">
          <mxGeometry width="50" height="50" relative="1" as="geometry">
            <mxPoint x="350" y="720" as="sourcePoint" />
            <mxPoint x="350" y="750" as="targetPoint" />
          </mxGeometry>
        </mxCell>
        <mxCell id="9wRkoVYpAe7Pgj8xl5cS-40" value="" style="shape=flexArrow;endArrow=classic;html=1;rounded=0;labelBackgroundColor=none;fontColor=none;fillColor=#FFFFFF;entryX=0.569;entryY=1;entryDx=0;entryDy=0;entryPerimeter=0;fontSize=17;" parent="1" edge="1">
          <mxGeometry width="50" height="50" relative="1" as="geometry">
            <mxPoint x="490" y="750" as="sourcePoint" />
            <mxPoint x="490" y="720" as="targetPoint" />
            <Array as="points">
              <mxPoint x="490.22" y="750" />
            </Array>
          </mxGeometry>
        </mxCell>
        <mxCell id="9wRkoVYpAe7Pgj8xl5cS-44" value="RISC-V Core" style="shape=umlFrame;whiteSpace=wrap;html=1;width=220;height=28;boundedLbl=1;verticalAlign=middle;align=left;spacingLeft=5;fillColor=#FFFFFF;swimlaneFillColor=#99CCFF;direction=east;fontSize=17;" parent="1" vertex="1">
          <mxGeometry x="110" y="832" width="370" height="180" as="geometry" />
        </mxCell>
        <mxCell id="9wRkoVYpAe7Pgj8xl5cS-49" value="TX PTP &#xa;TS FIFO" style="swimlane;fontStyle=0;childLayout=stackLayout;horizontal=1;startSize=40;horizontalStack=0;resizeParent=1;resizeParentMax=0;resizeLast=0;collapsible=1;marginBottom=0;labelBackgroundColor=none;fontColor=none;fillColor=#FF9999;fontSize=17;" parent="1" vertex="1">
          <mxGeometry x="640" y="490" width="100" height="100" as="geometry" />
        </mxCell>
        <mxCell id="9wRkoVYpAe7Pgj8xl5cS-50" value="  " style="text;strokeColor=default;fillColor=#FFCCCC;align=left;verticalAlign=middle;spacingLeft=4;spacingRight=4;overflow=hidden;points=[[0,0.5],[1,0.5]];portConstraint=eastwest;rotatable=0;labelBackgroundColor=none;fontColor=none;labelBorderColor=none;fontSize=17;" parent="9wRkoVYpAe7Pgj8xl5cS-49" vertex="1">
          <mxGeometry y="40" width="100" height="20" as="geometry" />
        </mxCell>
        <mxCell id="9wRkoVYpAe7Pgj8xl5cS-51" value=" " style="text;strokeColor=default;fillColor=#FFCCCC;align=left;verticalAlign=middle;spacingLeft=4;spacingRight=4;overflow=hidden;points=[[0,0.5],[1,0.5]];portConstraint=eastwest;rotatable=0;labelBackgroundColor=none;fontColor=none;fontSize=17;" parent="9wRkoVYpAe7Pgj8xl5cS-49" vertex="1">
          <mxGeometry y="60" width="100" height="20" as="geometry" />
        </mxCell>
        <mxCell id="9wRkoVYpAe7Pgj8xl5cS-52" value=" " style="text;strokeColor=default;fillColor=#FFCCCC;align=left;verticalAlign=middle;spacingLeft=4;spacingRight=4;overflow=hidden;points=[[0,0.5],[1,0.5]];portConstraint=eastwest;rotatable=0;labelBackgroundColor=none;fontColor=none;fontSize=17;" parent="9wRkoVYpAe7Pgj8xl5cS-49" vertex="1">
          <mxGeometry y="80" width="100" height="20" as="geometry" />
        </mxCell>
        <mxCell id="NilRoUXq7cAJDMya43DC-1" value="Stream" style="shape=flexArrow;endArrow=classic;html=1;rounded=0;labelBackgroundColor=none;fontColor=none;fillColor=#FFFFFF;orthogonal=1;horizontal=0;width=20;endSize=7.33;fontSize=17;exitX=0.51;exitY=1;exitDx=0;exitDy=0;exitPerimeter=0;entryX=0.696;entryY=-0.02;entryDx=0;entryDy=0;entryPerimeter=0;" parent="9wRkoVYpAe7Pgj8xl5cS-49" edge="1">
          <mxGeometry x="-0.0455" y="-1" width="50" height="50" relative="1" as="geometry">
            <mxPoint x="49.74000000000001" y="101" as="sourcePoint" />
            <mxPoint x="50.25999999999988" y="184.79999999999995" as="targetPoint" />
            <mxPoint as="offset" />
          </mxGeometry>
        </mxCell>
        <mxCell id="9wRkoVYpAe7Pgj8xl5cS-62" value="" style="shape=flexArrow;endArrow=classic;html=1;rounded=0;labelBackgroundColor=none;fontColor=none;fillColor=#FFFFFF;orthogonal=1;fontSize=17;" parent="1" edge="1">
          <mxGeometry width="50" height="50" relative="1" as="geometry">
            <mxPoint x="215" y="800" as="sourcePoint" />
            <mxPoint x="215" y="830" as="targetPoint" />
          </mxGeometry>
        </mxCell>
        <mxCell id="9wRkoVYpAe7Pgj8xl5cS-64" value="" style="shape=flexArrow;endArrow=classic;html=1;rounded=0;labelBackgroundColor=none;fontColor=none;fillColor=#FFFFFF;fontSize=17;exitX=0.663;exitY=0.001;exitDx=0;exitDy=0;exitPerimeter=0;" parent="1" source="9wRkoVYpAe7Pgj8xl5cS-44" edge="1">
          <mxGeometry width="50" height="50" relative="1" as="geometry">
            <mxPoint x="360" y="830" as="sourcePoint" />
            <mxPoint x="355" y="800" as="targetPoint" />
          </mxGeometry>
        </mxCell>
        <mxCell id="9wRkoVYpAe7Pgj8xl5cS-66" value="" style="shape=flexArrow;endArrow=classic;html=1;rounded=0;labelBackgroundColor=none;fontColor=none;fillColor=#FFFFFF;orthogonal=1;fontSize=17;" parent="1" edge="1">
          <mxGeometry width="50" height="50" relative="1" as="geometry">
            <mxPoint x="639.5" y="799" as="sourcePoint" />
            <mxPoint x="640" y="830" as="targetPoint" />
          </mxGeometry>
        </mxCell>
        <mxCell id="9wRkoVYpAe7Pgj8xl5cS-68" value="SW Stack" style="swimlane;fontStyle=0;childLayout=stackLayout;horizontal=1;startSize=30;horizontalStack=0;resizeParent=1;resizeParentMax=0;resizeLast=0;collapsible=1;marginBottom=0;glass=0;labelBackgroundColor=none;labelBorderColor=none;fontColor=none;strokeColor=default;fillColor=#A8FCFF;gradientColor=none;fontSize=17;" parent="1" vertex="1">
          <mxGeometry x="220" y="872" width="165" height="120" as="geometry" />
        </mxCell>
        <mxCell id="9wRkoVYpAe7Pgj8xl5cS-69" value="PTP Stack" style="text;strokeColor=default;fillColor=#E0FFFE;align=left;verticalAlign=middle;spacingLeft=4;spacingRight=4;overflow=hidden;points=[[0,0.5],[1,0.5]];portConstraint=eastwest;rotatable=0;glass=0;labelBackgroundColor=none;labelBorderColor=none;fontColor=none;fontSize=17;" parent="9wRkoVYpAe7Pgj8xl5cS-68" vertex="1">
          <mxGeometry y="30" width="165" height="30" as="geometry" />
        </mxCell>
        <mxCell id="9wRkoVYpAe7Pgj8xl5cS-70" value="IP/UDP Stack" style="text;strokeColor=default;fillColor=#E0FFFE;align=left;verticalAlign=middle;spacingLeft=4;spacingRight=4;overflow=hidden;points=[[0,0.5],[1,0.5]];portConstraint=eastwest;rotatable=0;glass=0;labelBackgroundColor=none;labelBorderColor=none;fontColor=none;fontSize=17;" parent="9wRkoVYpAe7Pgj8xl5cS-68" vertex="1">
          <mxGeometry y="60" width="165" height="30" as="geometry" />
        </mxCell>
        <mxCell id="9wRkoVYpAe7Pgj8xl5cS-71" value="OS/Kernel" style="text;strokeColor=default;fillColor=#E0FFFE;align=left;verticalAlign=middle;spacingLeft=4;spacingRight=4;overflow=hidden;points=[[0,0.5],[1,0.5]];portConstraint=eastwest;rotatable=0;glass=0;labelBackgroundColor=none;labelBorderColor=none;fontColor=none;fontSize=17;" parent="9wRkoVYpAe7Pgj8xl5cS-68" vertex="1">
          <mxGeometry y="90" width="165" height="30" as="geometry" />
        </mxCell>
        <mxCell id="ea6-Gz3SK-r3EGPKtPST-5" value="MAC Core Logic" style="shape=umlFrame;whiteSpace=wrap;html=1;width=160;height=30;boundedLbl=1;verticalAlign=middle;align=left;spacingLeft=5;fillColor=#FFFFFF;swimlaneFillColor=#B9E0A5;fontSize=17;" parent="1" vertex="1">
          <mxGeometry x="110" y="330" width="510" height="120" as="geometry" />
        </mxCell>
        <mxCell id="0bZ0CAgHgtpychcCBRZJ-1" value="Stream" style="shape=flexArrow;endArrow=classic;html=1;rounded=0;labelBackgroundColor=none;fontColor=none;fillColor=#FFFFFF;orthogonal=1;horizontal=0;width=20;endSize=7.33;startArrow=none;fontSize=17;entryX=0.517;entryY=1.04;entryDx=0;entryDy=0;entryPerimeter=0;" parent="1" source="9wRkoVYpAe7Pgj8xl5cS-30" target="J_g0EAkdZT1JNJ8Fqoq3-8" edge="1">
          <mxGeometry x="-0.2018" width="50" height="50" relative="1" as="geometry">
            <mxPoint x="379.58" y="665" as="sourcePoint" />
            <mxPoint x="399.25" y="592.01" as="targetPoint" />
            <mxPoint as="offset" />
          </mxGeometry>
        </mxCell>
        <mxCell id="dMiMLzUYuEcjHtfRN7Cz-6" value="" style="shape=flexArrow;endArrow=classic;html=1;rounded=0;labelBackgroundColor=none;fontColor=none;fillColor=#FFFFFF;fontSize=17;entryX=0.857;entryY=1.009;entryDx=0;entryDy=0;entryPerimeter=0;width=21.714285714285715;endSize=6.308571428571428;" parent="1" target="ea6-Gz3SK-r3EGPKtPST-1" edge="1">
          <mxGeometry width="50" height="50" relative="1" as="geometry">
            <mxPoint x="787" y="780" as="sourcePoint" />
            <mxPoint x="788.96" y="450.98" as="targetPoint" />
          </mxGeometry>
        </mxCell>
        <mxCell id="dMiMLzUYuEcjHtfRN7Cz-8" value="&lt;font style=&quot;font-size: 17px;&quot;&gt;Clock Adjustment&lt;/font&gt;" style="edgeLabel;html=1;align=center;verticalAlign=middle;resizable=0;points=[];fontSize=17;rotation=270;labelBackgroundColor=none;" parent="dMiMLzUYuEcjHtfRN7Cz-6" vertex="1" connectable="0">
          <mxGeometry x="-0.1639" relative="1" as="geometry">
            <mxPoint y="-32" as="offset" />
          </mxGeometry>
        </mxCell>
        <mxCell id="NilRoUXq7cAJDMya43DC-3" value="Stream" style="shape=flexArrow;endArrow=classic;html=1;rounded=0;labelBackgroundColor=none;fontColor=none;fillColor=default;orthogonal=1;horizontal=0;width=20;endSize=7.33;fontSize=17;exitX=0.51;exitY=1;exitDx=0;exitDy=0;exitPerimeter=0;" parent="1" edge="1">
          <mxGeometry x="-0.0476" width="50" height="50" relative="1" as="geometry">
            <mxPoint x="564.66" y="590" as="sourcePoint" />
            <mxPoint x="565" y="674" as="targetPoint" />
            <mxPoint as="offset" />
          </mxGeometry>
        </mxCell>
        <mxCell id="ea6-Gz3SK-r3EGPKtPST-1" value="PTP Clock" style="shape=umlFrame;whiteSpace=wrap;html=1;width=120;height=30;boundedLbl=1;verticalAlign=middle;align=left;spacingLeft=5;fillColor=#FFFFFF;swimlaneFillColor=#FFCCCC;fontSize=17;" parent="1" vertex="1">
          <mxGeometry x="650" y="330" width="160" height="120" as="geometry" />
        </mxCell>
        <mxCell id="ea6-Gz3SK-r3EGPKtPST-3" value="" style="edgeStyle=orthogonalEdgeStyle;rounded=0;orthogonalLoop=1;jettySize=auto;html=1;entryX=0.5;entryY=0;entryDx=0;entryDy=0;strokeWidth=3;exitX=0.586;exitY=0.997;exitDx=0;exitDy=0;exitPerimeter=0;fontSize=17;" parent="1" source="9wRkoVYpAe7Pgj8xl5cS-26" target="9wRkoVYpAe7Pgj8xl5cS-18" edge="1">
          <mxGeometry relative="1" as="geometry">
            <mxPoint x="575" y="450" as="sourcePoint" />
            <mxPoint x="700" y="490" as="targetPoint" />
            <Array as="points">
              <mxPoint x="530" y="429" />
              <mxPoint x="530" y="429" />
              <mxPoint x="530" y="460" />
              <mxPoint x="565" y="460" />
            </Array>
          </mxGeometry>
        </mxCell>
        <mxCell id="ea6-Gz3SK-r3EGPKtPST-4" value="" style="edgeStyle=orthogonalEdgeStyle;rounded=0;orthogonalLoop=1;jettySize=auto;html=1;entryX=0.996;entryY=0.502;entryDx=0;entryDy=0;strokeWidth=3;entryPerimeter=0;fontSize=17;" parent="1" source="ea6-Gz3SK-r3EGPKtPST-1" target="9wRkoVYpAe7Pgj8xl5cS-26" edge="1">
          <mxGeometry relative="1" as="geometry">
            <mxPoint x="575" y="470" as="sourcePoint" />
            <mxPoint x="700" y="550" as="targetPoint" />
          </mxGeometry>
        </mxCell>
        <mxCell id="9wRkoVYpAe7Pgj8xl5cS-26" value="Time Stamping Unit" style="shape=umlFrame;whiteSpace=wrap;html=1;width=170;height=30;boundedLbl=1;verticalAlign=middle;align=left;spacingLeft=5;fillColor=#FFFFFF;swimlaneFillColor=#FFCCCC;fontSize=17;" parent="1" vertex="1">
          <mxGeometry x="430" y="350" width="170" height="80" as="geometry" />
        </mxCell>
        <mxCell id="ea6-Gz3SK-r3EGPKtPST-2" value="" style="edgeStyle=orthogonalEdgeStyle;rounded=0;orthogonalLoop=1;jettySize=auto;html=1;entryX=0.5;entryY=0;entryDx=0;entryDy=0;strokeWidth=3;fontSize=17;" parent="1" source="9wRkoVYpAe7Pgj8xl5cS-26" target="9wRkoVYpAe7Pgj8xl5cS-49" edge="1">
          <mxGeometry relative="1" as="geometry">
            <Array as="points">
              <mxPoint x="530" y="460" />
              <mxPoint x="690" y="460" />
            </Array>
          </mxGeometry>
        </mxCell>
        <mxCell id="J_g0EAkdZT1JNJ8Fqoq3-1" value="On-Chip Memory" style="shape=umlFrame;whiteSpace=wrap;html=1;width=220;height=30;boundedLbl=1;verticalAlign=middle;align=left;spacingLeft=5;fillColor=#FFFFFF;swimlaneFillColor=#99CCFF;direction=east;fontSize=17;" parent="1" vertex="1">
          <mxGeometry x="530" y="830" width="280" height="130" as="geometry" />
        </mxCell>
        <mxCell id="J_g0EAkdZT1JNJ8Fqoq3-2" value="DMA" style="rounded=0;whiteSpace=wrap;html=1;glass=0;labelBackgroundColor=none;labelBorderColor=none;fontColor=none;strokeColor=default;fillColor=#99CCFF;fontSize=17;" parent="1" vertex="1">
          <mxGeometry x="110" y="676" width="620" height="44" as="geometry" />
        </mxCell>
        <mxCell id="J_g0EAkdZT1JNJ8Fqoq3-3" value="On-Chip Interconnect" style="rounded=0;whiteSpace=wrap;html=1;glass=0;labelBackgroundColor=none;labelBorderColor=none;fontColor=none;strokeColor=default;fillColor=#99CCFF;fontSize=17;" parent="1" vertex="1">
          <mxGeometry x="110" y="750" width="700" height="50" as="geometry" />
        </mxCell>
        <mxCell id="J_g0EAkdZT1JNJ8Fqoq3-5" value="RX FIFO (ETH Frame)" style="swimlane;fontStyle=0;childLayout=stackLayout;horizontal=1;startSize=30;horizontalStack=0;resizeParent=1;resizeParentMax=0;resizeLast=0;collapsible=1;marginBottom=0;labelBackgroundColor=none;fontColor=none;fillColor=#97D077;fontSize=17;" parent="1" vertex="1">
          <mxGeometry x="310" y="495" width="180" height="90" as="geometry" />
        </mxCell>
        <mxCell id="J_g0EAkdZT1JNJ8Fqoq3-6" value="  " style="text;strokeColor=default;fillColor=#B9E0A5;align=left;verticalAlign=middle;spacingLeft=4;spacingRight=4;overflow=hidden;points=[[0,0.5],[1,0.5]];portConstraint=eastwest;rotatable=0;labelBackgroundColor=none;fontColor=none;labelBorderColor=none;fontSize=17;" parent="J_g0EAkdZT1JNJ8Fqoq3-5" vertex="1">
          <mxGeometry y="30" width="180" height="20" as="geometry" />
        </mxCell>
        <mxCell id="J_g0EAkdZT1JNJ8Fqoq3-7" value=" " style="text;strokeColor=default;fillColor=#B9E0A5;align=left;verticalAlign=middle;spacingLeft=4;spacingRight=4;overflow=hidden;points=[[0,0.5],[1,0.5]];portConstraint=eastwest;rotatable=0;labelBackgroundColor=none;fontColor=none;fontSize=17;" parent="J_g0EAkdZT1JNJ8Fqoq3-5" vertex="1">
          <mxGeometry y="50" width="180" height="20" as="geometry" />
        </mxCell>
        <mxCell id="J_g0EAkdZT1JNJ8Fqoq3-8" value=" " style="text;strokeColor=default;fillColor=#B9E0A5;align=left;verticalAlign=middle;spacingLeft=4;spacingRight=4;overflow=hidden;points=[[0,0.5],[1,0.5]];portConstraint=eastwest;rotatable=0;labelBackgroundColor=none;fontColor=none;fontSize=17;" parent="J_g0EAkdZT1JNJ8Fqoq3-5" vertex="1">
          <mxGeometry y="70" width="180" height="20" as="geometry" />
        </mxCell>
        <mxCell id="J_g0EAkdZT1JNJ8Fqoq3-10" value="" style="edgeStyle=orthogonalEdgeStyle;rounded=0;orthogonalLoop=1;jettySize=auto;html=1;entryX=0.5;entryY=0;entryDx=0;entryDy=0;strokeWidth=3;fontSize=17;" parent="1" target="9wRkoVYpAe7Pgj8xl5cS-14" edge="1">
          <mxGeometry relative="1" as="geometry">
            <mxPoint x="200" y="450" as="sourcePoint" />
            <mxPoint x="609.3199999999999" y="400.15999999999997" as="targetPoint" />
          </mxGeometry>
        </mxCell>
        <mxCell id="J_g0EAkdZT1JNJ8Fqoq3-11" value="" style="edgeStyle=orthogonalEdgeStyle;rounded=0;orthogonalLoop=1;jettySize=auto;html=1;entryX=0.5;entryY=0;entryDx=0;entryDy=0;strokeWidth=3;fontSize=17;exitX=0.569;exitY=0.997;exitDx=0;exitDy=0;exitPerimeter=0;" parent="1" source="ea6-Gz3SK-r3EGPKtPST-5" target="J_g0EAkdZT1JNJ8Fqoq3-5" edge="1">
          <mxGeometry relative="1" as="geometry">
            <mxPoint x="390" y="450" as="sourcePoint" />
            <mxPoint x="390" y="500" as="targetPoint" />
          </mxGeometry>
        </mxCell>
      </root>
    </mxGraphModel>
  </diagram>
</mxfile>
